<svg id="Line_Expand" height="512" viewBox="0 0 64 64" width="512" xmlns="http://www.w3.org/2000/svg" data-name="Line Expand"><path d="m42.563 5.881a3 3 0 0 0 -4.243 0l-1.414 1.419a25.345 25.345 0 0 0 -7.325 15.81l-26.411 26.406a4 4 0 0 0 0 5.657l5.657 5.657a4 4 0 0 0 5.657 0l26.416-26.412a25.339 25.339 0 0 0 15.809-7.324l1.414-1.414a3 3 0 0 0 0-4.243zm-29.494 53.535a2 2 0 0 1 -2.828 0l-5.657-5.657a2 2 0 0 1 0-2.828l1.416-1.415 8.484 8.484zm2.831-2.828-8.488-8.488 23.13-23.13 8.486 8.486zm24.922-24.164-9.246-9.246a23.349 23.349 0 0 1 6.052-13.747l16.941 16.941a23.355 23.355 0 0 1 -13.747 6.052zm15.883-8.159-.705.707-16.972-16.972.707-.707a1 1 0 0 1 1.414 0l15.556 15.558a1 1 0 0 1 0 1.414z"/><path d="m27.04 32.01-4.95 4.95a3.5 3.5 0 1 0 4.95 4.95l4.95-4.95a3.5 3.5 0 1 0 -4.95-4.95zm-1.414 8.49a1.5 1.5 0 0 1 -2.126-2.126l2.723-2.723a3.385 3.385 0 0 0 2.122 2.122zm4.949-4.95a1.5 1.5 0 1 1 0-2.121 1.5 1.5 0 0 1 0 2.117z"/><rect height="2" rx="1" transform="matrix(.707 -.707 .707 .707 11.502 42.254)" width="6" x="53.757" y="6.243"/><path d="m50 8a1 1 0 0 0 1-1v-4a1 1 0 0 0 -2 0v4a1 1 0 0 0 1 1z"/><path d="m61 13h-4a1 1 0 0 0 0 2h4a1 1 0 0 0 0-2z"/></svg>